<svg width="1200" height="900" viewBox="0 0 1200 900" fill="none" xmlns="http://www.w3.org/2000/svg">
  <rect width="1200" height="900" fill="#0A1120"/>
  <rect x="98" y="110" width="1004" height="680" rx="34" fill="#111827" stroke="#334155" stroke-width="10"/>
  <rect x="160" y="170" width="880" height="500" rx="24" fill="#1E293B"/>
  <path d="M188 612C266 534 342 500 440 504C546 508 624 562 706 570C792 578 862 534 954 456V648H188V612Z" fill="#166534"/>
  <path d="M220 584C286 522 348 492 434 496C516 500 590 548 662 558C748 570 840 536 978 410" stroke="#86EFAC" stroke-width="18" stroke-linecap="round"/>
  <circle cx="600" cy="420" r="94" fill="#0B1324" stroke="#F97316" stroke-width="12"/>
  <path d="M572 370L662 420L572 470V370Z" fill="#FBBF24"/>
  <text x="102" y="84" fill="#F8FAFC" font-family="Arial, sans-serif" font-size="42" font-weight="700">Seeded Evidence</text>
  <text x="164" y="730" fill="#F8FAFC" font-family="Arial, sans-serif" font-size="36" font-weight="700">Neighborhood canvass video reference</text>
  <text x="164" y="774" fill="#94A3B8" font-family="Arial, sans-serif" font-size="24">Demo video card for exercising report and evidence review flow</text>
</svg>
