<svg width="1200" height="900" viewBox="0 0 1200 900" fill="none" xmlns="http://www.w3.org/2000/svg">
  <rect width="1200" height="900" fill="#0B1220"/>
  <rect x="72" y="82" width="1056" height="736" rx="34" fill="#111827" stroke="#334155" stroke-width="8"/>
  <rect x="128" y="160" width="944" height="84" rx="18" fill="#64748B"/>
  <rect x="128" y="244" width="944" height="32" rx="16" fill="#94A3B8" opacity="0.55"/>
  <circle cx="280" cy="202" r="21" fill="#CBD5E1"/>
  <circle cx="412" cy="198" r="17" fill="#E2E8F0"/>
  <circle cx="566" cy="208" r="26" fill="#CBD5E1"/>
  <circle cx="754" cy="196" r="18" fill="#E2E8F0"/>
  <circle cx="892" cy="210" r="24" fill="#CBD5E1"/>
  <rect x="228" y="320" width="78" height="356" rx="24" fill="#475569"/>
  <rect x="300" y="320" width="38" height="356" rx="18" fill="#94A3B8"/>
  <circle cx="322" cy="418" r="20" fill="#CBD5E1"/>
  <circle cx="324" cy="514" r="16" fill="#E2E8F0"/>
  <circle cx="322" cy="604" r="24" fill="#CBD5E1"/>
  <path d="M708 382C761 334 857 344 904 396C950 446 950 530 896 582C844 632 760 644 706 604" stroke="#F59E0B" stroke-width="18" stroke-linecap="round"/>
  <circle cx="824" cy="490" r="86" fill="#111827" stroke="#FBBF24" stroke-width="10"/>
  <circle cx="824" cy="490" r="12" fill="#FBBF24"/>
  <text x="126" y="118" fill="#F8FAFC" font-family="Arial, sans-serif" font-size="42" font-weight="700">Seeded Evidence</text>
  <text x="128" y="756" fill="#CBD5E1" font-family="Arial, sans-serif" font-size="34">Collateral damage on gutter line</text>
  <text x="128" y="800" fill="#94A3B8" font-family="Arial, sans-serif" font-size="24">Demo image for standalone report and evidence flow</text>
</svg>
