<svg xmlns="http://www.w3.org/2000/svg" width="64" height="64" fill="none" viewBox="0 0 64 64">
  <defs>
    <linearGradient id="bg" x1="10" x2="54" y1="8" y2="58" gradientUnits="userSpaceOnUse">
      <stop stop-color="#5b2aa8" />
      <stop offset="1" stop-color="#241046" />
    </linearGradient>
    <linearGradient id="cloud" x1="19" x2="44" y1="17" y2="40" gradientUnits="userSpaceOnUse">
      <stop stop-color="#fbbf24" />
      <stop offset=".55" stop-color="#fb923c" />
      <stop offset="1" stop-color="#f97316" />
    </linearGradient>
    <filter id="shadow" width="64" height="64" x="0" y="0" color-interpolation-filters="sRGB" filterUnits="userSpaceOnUse">
      <feFlood flood-opacity="0" result="BackgroundImageFix"/>
      <feColorMatrix in="SourceAlpha" result="hardAlpha" values="0 0 0 0 0 0 0 0 0 0 0 0 0 0 0 0 0 0 127 0"/>
      <feOffset dy="4"/>
      <feGaussianBlur stdDeviation="4"/>
      <feComposite in2="hardAlpha" operator="out"/>
      <feColorMatrix values="0 0 0 0 0.109804 0 0 0 0 0.0470588 0 0 0 0 0.231373 0 0 0 0.35 0"/>
      <feBlend in2="BackgroundImageFix" result="effect1_dropShadow_0_1"/>
      <feBlend in="SourceGraphic" in2="effect1_dropShadow_0_1" result="shape"/>
    </filter>
  </defs>
  <g filter="url(#shadow)">
    <rect width="48" height="48" x="8" y="8" fill="url(#bg)" rx="14"/>
    <path fill="url(#cloud)" d="M21.637 39.25c-4.074 0-7.387-3.238-7.387-7.238 0-3.543 2.597-6.541 6.113-7.114.853-5.705 5.918-10.068 12.052-10.068 5.233 0 9.69 3.173 11.425 7.659 3.4.42 6.035 3.263 6.035 6.705 0 3.736-3.095 6.806-6.938 6.806H21.637Z"/>
    <path stroke="#fff7ed" stroke-linecap="round" stroke-width="4" d="m23 42-3.2 9M31 42l-3.2 10M39 42l-3.2 9.5M47 42l-3.2 10"/>
  </g>
</svg>
